<?xml version="1.0" encoding="utf-8"?>
<!-- Generator: Adobe Illustrator 23.1.1, SVG Export Plug-In . SVG Version: 6.00 Build 0)  -->
<svg version="1.2" baseProfile="tiny" id="g-cd9-race-mobile-img" xmlns="http://www.w3.org/2000/svg" xmlns:xlink="http://www.w3.org/1999/xlink"
	 x="0px" y="0px" viewBox="0 0 314 640" xml:space="preserve">
<g>
	<line style="opacity:0.2;" fill="none" stroke="#444444" stroke-width="2" x1="211.161" y1="459.066" x2="248.176" y2="459.332"/>
	<line style="opacity:0.2;" fill="none" stroke="#444444" stroke-width="2" x1="96.519" y1="167.792" x2="135.87" y2="167.792"/>
	<line style="opacity:0.2;" fill="none" stroke="#444444" stroke-width="2" x1="135.311" y1="164.79" x2="174.311" y2="164.79"/>
	<line style="opacity:0.2;" fill="none" stroke="#444444" stroke-width="2" x1="175.311" y1="143.79" x2="211.166" y2="143.79"/>
	<line style="opacity:0.2;" fill="none" stroke="#444444" stroke-width="2" x1="210.311" y1="124.79" x2="248.032" y2="125.064"/>
	<line style="opacity:0.2;" fill="none" stroke="#444444" stroke-width="2" x1="45.072" y1="411.812" x2="97.311" y2="411.812"/>
	<line style="opacity:0.2;" fill="none" stroke="#444444" stroke-width="2" x1="97.311" y1="422.658" x2="135.87" y2="422.658"/>
	<line style="opacity:0.2;" fill="none" stroke="#444444" stroke-width="2" x1="135.87" y1="403.34" x2="174.311" y2="403.34"/>
	<line style="opacity:0.2;" fill="none" stroke="#444444" stroke-width="2" x1="174.152" y1="463.662" x2="211.166" y2="463.927"/>
	<line style="opacity:0.3;" fill="none" stroke="#D6D6D6" stroke-width="0.5" x1="46.311" y1="212.103" x2="305.721" y2="212.103"/>
	<line style="opacity:0.3;" fill="none" stroke="#D6D6D6" stroke-width="0.5" x1="46.311" y1="255.994" x2="305.721" y2="255.994"/>
	<line style="opacity:0.3;" fill="none" stroke="#D6D6D6" stroke-width="0.5" x1="46.311" y1="299.884" x2="301.993" y2="299.884"/>
	<line style="opacity:0.3;" fill="none" stroke="#D6D6D6" stroke-width="0.5" x1="46.311" y1="342.521" x2="305.721" y2="342.521"/>
	<line style="opacity:0.3;" fill="none" stroke="#D6D6D6" stroke-width="0.5" x1="46.311" y1="387.665" x2="305.721" y2="387.665"/>
	<line style="opacity:0.3;" fill="none" stroke="#D6D6D6" stroke-width="0.5" x1="46.311" y1="432.81" x2="305.721" y2="432.81"/>
	<line style="opacity:0.3;" fill="none" stroke="#D6D6D6" stroke-width="0.5" x1="46.311" y1="477.954" x2="305.721" y2="477.954"/>
	<line style="opacity:0.3;" fill="none" stroke="#D6D6D6" stroke-width="0.5" x1="46.311" y1="523.099" x2="305.721" y2="523.099"/>
	<line style="opacity:0.2;" fill="none" stroke="#444444" stroke-width="2" x1="52.465" y1="172.368" x2="97.311" y2="172.368"/>
	<line style="opacity:0.3;" fill="none" stroke="#D6D6D6" stroke-width="0.5" x1="46.369" y1="174.79" x2="305.721" y2="174.79"/>
	<line style="opacity:0.3;" fill="none" stroke="#D6D6D6" stroke-width="0.5" x1="46.369" y1="137.476" x2="248.032" y2="137.476"/>
	<line style="opacity:0.15;" fill="none" stroke="#777777" stroke-width="0.5" x1="97.311" y1="543.79" x2="97.311" y2="96.707"/>
	<line style="opacity:0.15;" fill="none" stroke="#777777" stroke-width="0.5" x1="135.87" y1="543.79" x2="135.87" y2="96.707"/>
	<line style="opacity:0.15;" fill="none" stroke="#777777" stroke-width="0.5" x1="174.311" y1="543.79" x2="174.311" y2="96.707"/>
	<line style="opacity:0.15;" fill="none" stroke="#777777" stroke-width="0.5" x1="211.166" y1="543.79" x2="211.166" y2="96.707"/>
	<rect x="-2.077" y="130.08" fill="#FFFFFF" width="101.88" height="14.212"/>
	<line style="opacity:0.15;" fill="none" stroke="#777777" stroke-width="0.5" x1="248.032" y1="543.79" x2="248.032" y2="96.707"/>
	<line fill="none" stroke="#3D9970" stroke-width="2" stroke-miterlimit="10" x1="97.539" y1="173.368" x2="97.539" y2="166.792"/>
	
		<line fill="none" stroke="#3D9970" stroke-width="2" stroke-miterlimit="10" x1="135.633" y1="168.777" x2="135.633" y2="163.786"/>
	
		<line fill="none" stroke="#3D9970" stroke-width="2" stroke-miterlimit="10" x1="174.311" y1="165.792" x2="174.311" y2="142.817"/>
	
		<line fill="none" stroke="#3D9970" stroke-width="2" stroke-miterlimit="10" x1="211.311" y1="144.803" x2="211.311" y2="123.784"/>
	<line fill="none" stroke="#FF7373" stroke-width="2" stroke-miterlimit="10" x1="97.311" y1="423.585" x2="97.311" y2="410.849"/>
	
		<line fill="none" stroke="#3D9970" stroke-width="2" stroke-miterlimit="10" x1="135.811" y1="423.657" x2="135.811" y2="402.339"/>
	
		<line fill="none" stroke="#FF7373" stroke-width="2" stroke-miterlimit="10" x1="174.152" y1="464.644" x2="174.152" y2="402.339"/>
	<line fill="none" stroke="#3D9970" stroke-width="2" stroke-miterlimit="10" x1="211.167" y1="464.91" x2="211.167" y2="458.071"/>
	<rect x="250.502" y="471.585" fill="#FFFFFF" width="52.796" height="10.847"/>
	
		<path fill="#3D9970" stroke="#3D9970" stroke-width="0.75" stroke-linecap="round" stroke-linejoin="round" stroke-miterlimit="10" d="
		M95.377,169.536c0.104,0.068,0.243,0.039,0.312-0.065l1.891-2.877l1.807,2.93c0.065,0.106,0.204,0.139,0.31,0.073
		c0.105-0.065,0.138-0.205,0.073-0.31l-1.993-3.231c-0.04-0.065-0.111-0.106-0.188-0.107c-0.077-0.001-0.149,0.037-0.192,0.101
		l-2.085,3.172c-0.024,0.037-0.036,0.079-0.037,0.12C95.274,169.419,95.31,169.492,95.377,169.536"/>
	
		<path fill="#3D9970" stroke="#3D9970" stroke-width="0.75" stroke-linecap="round" stroke-linejoin="round" stroke-miterlimit="10" d="
		M133.47,166.535c0.104,0.068,0.243,0.039,0.312-0.065l1.891-2.877l1.807,2.93c0.065,0.106,0.204,0.139,0.31,0.073
		c0.105-0.065,0.138-0.205,0.073-0.31l-1.993-3.231c-0.04-0.065-0.111-0.106-0.188-0.107c-0.077-0.001-0.149,0.037-0.192,0.101
		l-2.085,3.172c-0.024,0.037-0.036,0.079-0.037,0.12C133.368,166.417,133.404,166.491,133.47,166.535"/>
	
		<path fill="#3D9970" stroke="#3D9970" stroke-width="0.75" stroke-linecap="round" stroke-linejoin="round" stroke-miterlimit="10" d="
		M172.132,145.148c0.104,0.068,0.243,0.039,0.312-0.065l1.891-2.877l1.807,2.93c0.065,0.106,0.204,0.139,0.31,0.073
		c0.105-0.065,0.138-0.205,0.073-0.31l-1.993-3.231c-0.04-0.065-0.111-0.106-0.188-0.107c-0.077-0.001-0.149,0.037-0.192,0.101
		l-2.085,3.172c-0.024,0.037-0.036,0.079-0.037,0.12C172.03,145.031,172.066,145.104,172.132,145.148"/>
	
		<path fill="#3D9970" stroke="#3D9970" stroke-width="0.75" stroke-linecap="round" stroke-linejoin="round" stroke-miterlimit="10" d="
		M209.149,126.326c0.104,0.068,0.243,0.039,0.312-0.065l1.891-2.877l1.807,2.93c0.065,0.106,0.204,0.139,0.31,0.073
		c0.105-0.065,0.138-0.205,0.073-0.31l-1.993-3.231c-0.04-0.065-0.111-0.106-0.188-0.107c-0.077-0.001-0.149,0.037-0.192,0.101
		l-2.085,3.172c-0.024,0.037-0.036,0.079-0.037,0.12C209.047,126.209,209.083,126.282,209.149,126.326"/>
	
		<path fill="#3D9970" stroke="#3D9970" stroke-width="0.75" stroke-linecap="round" stroke-linejoin="round" stroke-miterlimit="10" d="
		M133.649,404.762c0.104,0.068,0.243,0.039,0.312-0.065l1.891-2.877l1.807,2.93c0.065,0.106,0.204,0.139,0.31,0.073
		c0.105-0.065,0.138-0.205,0.073-0.31l-1.993-3.231c-0.04-0.065-0.111-0.106-0.188-0.107c-0.077-0.001-0.149,0.037-0.192,0.101
		l-2.085,3.172c-0.024,0.037-0.036,0.079-0.037,0.12C133.547,404.645,133.583,404.718,133.649,404.762"/>
	
		<path fill="#FF7373" stroke="#FF7373" stroke-width="0.75" stroke-linecap="round" stroke-linejoin="round" stroke-miterlimit="10" d="
		M95.149,420.914c0.104-0.068,0.243-0.039,0.312,0.065l1.891,2.877l1.807-2.93c0.065-0.106,0.204-0.139,0.31-0.073
		c0.105,0.065,0.138,0.205,0.073,0.31l-1.993,3.231c-0.04,0.065-0.111,0.106-0.188,0.107c-0.077,0.001-0.149-0.037-0.192-0.101
		l-2.085-3.172c-0.024-0.037-0.036-0.079-0.037-0.12C95.047,421.031,95.083,420.958,95.149,420.914"/>
	
		<path fill="#FF7373" stroke="#FF7373" stroke-width="0.75" stroke-linecap="round" stroke-linejoin="round" stroke-miterlimit="10" d="
		M171.99,462.183c0.104-0.068,0.243-0.039,0.312,0.065l1.891,2.877l1.807-2.93c0.065-0.106,0.204-0.139,0.31-0.073
		c0.105,0.065,0.138,0.205,0.073,0.31l-1.993,3.231c-0.04,0.065-0.111,0.106-0.188,0.107c-0.077,0.001-0.149-0.037-0.192-0.101
		l-2.085-3.172c-0.024-0.037-0.036-0.079-0.037-0.12C171.887,462.3,171.923,462.227,171.99,462.183"/>
	
		<path fill="#3D9970" stroke="#3D9970" stroke-width="0.75" stroke-linecap="round" stroke-linejoin="round" stroke-miterlimit="10" d="
		M208.999,460.359c0.104,0.068,0.243,0.039,0.312-0.065l1.891-2.877l1.807,2.93c0.065,0.106,0.204,0.139,0.31,0.073
		c0.105-0.065,0.138-0.205,0.073-0.31l-1.993-3.231c-0.04-0.065-0.111-0.106-0.188-0.107c-0.077-0.001-0.149,0.037-0.192,0.101
		l-2.085,3.172c-0.024,0.037-0.036,0.079-0.037,0.12C208.896,460.242,208.932,460.315,208.999,460.359"/>
	<rect x="49.465" y="180.333" fill="#FFFFFF" width="126.093" height="53.475"/>
	<rect x="94.222" y="198.919" fill="#FFFFFF" width="124.442" height="17.473"/>
	<rect x="138.075" y="490.414" fill="#FFFFFF" width="105.189" height="67.481"/>
	<rect x="235.389" y="506.643" fill="#FFFFFF" width="67.908" height="44.422"/>
</g>
<style>
#g-cd9-race-mobile-img rect, #g-cd9-race-mobile-img circle, #g-cd9-race-mobile-img path, #g-cd9-race-mobile-img line, #g-cd9-race-mobile-img polyline { vector-effect: non-scaling-stroke; }
</style>
</svg>

