<?xml version="1.0" encoding="utf-8"?>
<!-- Generator: Adobe Illustrator 23.1.1, SVG Export Plug-In . SVG Version: 6.00 Build 0)  -->
<svg version="1.2" baseProfile="tiny" id="g-cd9-race-desktop-img" xmlns="http://www.w3.org/2000/svg" xmlns:xlink="http://www.w3.org/1999/xlink"
	 x="0px" y="0px" viewBox="0 0 850 560" xml:space="preserve">
<g>
	<line style="opacity:0.2;" fill="none" stroke="#444444" stroke-width="2" x1="209" y1="147" x2="324" y2="147"/>
	<line style="opacity:0.2;" fill="none" stroke="#444444" stroke-width="2" x1="324" y1="143" x2="439" y2="143"/>
	<line style="opacity:0.2;" fill="none" stroke="#444444" stroke-width="2" x1="439.428" y1="122" x2="554.428" y2="122"/>
	<line style="opacity:0.2;" fill="none" stroke="#444444" stroke-width="2" x1="94.513" y1="390.022" x2="209.513" y2="390.022"/>
	<line style="opacity:0.2;" fill="none" stroke="#444444" stroke-width="2" x1="209" y1="402.868" x2="324" y2="402.868"/>
	<line style="opacity:0.2;" fill="none" stroke="#444444" stroke-width="2" x1="324" y1="381.55" x2="439" y2="381.55"/>
	<line style="opacity:0.3;" fill="none" stroke="#D6D6D6" stroke-width="0.5" x1="80.88" y1="190.313" x2="669.288" y2="190.313"/>
	<line style="opacity:0.3;" fill="none" stroke="#D6D6D6" stroke-width="0.5" x1="80.88" y1="234.204" x2="669.288" y2="234.204"/>
	<line style="opacity:0.3;" fill="none" stroke="#D6D6D6" stroke-width="0.5" x1="80.88" y1="278.094" x2="669.288" y2="278.094"/>
	<line style="opacity:0.3;" fill="none" stroke="#D6D6D6" stroke-width="0.5" x1="80.88" y1="320.73" x2="669.288" y2="320.73"/>
	<line style="opacity:0.3;" fill="none" stroke="#D6D6D6" stroke-width="0.5" x1="81.713" y1="365.875" x2="669.288" y2="365.875"/>
	<line style="opacity:0.3;" fill="none" stroke="#D6D6D6" stroke-width="0.5" x1="81.713" y1="411.02" x2="669.288" y2="411.02"/>
	<line style="opacity:0.3;" fill="none" stroke="#D6D6D6" stroke-width="0.5" x1="80.88" y1="456.164" x2="669.288" y2="456.164"/>
	<line style="opacity:0.3;" fill="none" stroke="#D6D6D6" stroke-width="0.5" x1="80.88" y1="501.309" x2="565.827" y2="501.309"/>
	<line style="opacity:0.2;" fill="none" stroke="#444444" stroke-width="2" x1="93.815" y1="150.735" x2="208.815" y2="150.735"/>
	<line style="opacity:0.3;" fill="none" stroke="#D6D6D6" stroke-width="0.5" x1="80.88" y1="153" x2="669.288" y2="153"/>
	<line style="opacity:0.3;" fill="none" stroke="#D6D6D6" stroke-width="0.5" x1="94.168" y1="115.686" x2="669.288" y2="115.686"/>
	<line style="opacity:0.15;" fill="none" stroke="#777777" stroke-width="0.5" x1="209" y1="522" x2="209" y2="76.554"/>
	<line style="opacity:0.15;" fill="none" stroke="#777777" stroke-width="0.5" x1="324" y1="522" x2="324" y2="76.554"/>
	<line style="opacity:0.15;" fill="none" stroke="#777777" stroke-width="0.5" x1="439" y1="522" x2="439" y2="76.554"/>
	<line style="opacity:0.15;" fill="none" stroke="#777777" stroke-width="0.5" x1="554.607" y1="522" x2="554.607" y2="76.554"/>
	<rect x="315.143" y="156.606" fill="#FFFFFF" width="48.538" height="14.397"/>
	<line style="opacity:0.2;" fill="none" stroke="#444444" stroke-width="2" x1="554.288" y1="437.121" x2="669.288" y2="437.727"/>
	<line style="opacity:0.2;" fill="none" stroke="#444444" stroke-width="2" x1="554.288" y1="103" x2="669.288" y2="103"/>
	<line fill="none" stroke="#FF7373" stroke-width="2" stroke-miterlimit="10" x1="209" y1="403.845" x2="209" y2="389.019"/>
	
		<path fill="#FF7373" stroke="#FF7373" stroke-width="0.75" stroke-linecap="round" stroke-linejoin="round" stroke-miterlimit="10" d="
		M205.368,399.435c0.174-0.115,0.409-0.066,0.524,0.108l3.176,4.833l3.036-4.922c0.11-0.178,0.343-0.233,0.52-0.123
		c0.177,0.11,0.231,0.344,0.123,0.52l-3.348,5.427c-0.068,0.11-0.187,0.178-0.316,0.18c-0.13,0.002-0.251-0.063-0.322-0.17
		l-3.503-5.329c-0.04-0.062-0.061-0.133-0.062-0.202C205.195,399.632,205.256,399.509,205.368,399.435"/>
	<line style="opacity:0.2;" fill="none" stroke="#444444" stroke-width="2" x1="439.428" y1="441.743" x2="554.428" y2="442.162"/>
	<line fill="none" stroke="#3D9970" stroke-width="2" stroke-miterlimit="10" x1="323.84" y1="381.317" x2="323.84" y2="403.869"/>
	
		<path fill="#3D9970" stroke="#3D9970" stroke-width="0.75" stroke-linecap="round" stroke-linejoin="round" stroke-miterlimit="10" d="
		M320.208,386.454c0.174,0.115,0.409,0.066,0.524-0.108l3.176-4.833l3.036,4.922c0.11,0.178,0.343,0.233,0.52,0.123
		c0.177-0.11,0.231-0.344,0.123-0.52l-3.348-5.427c-0.068-0.11-0.187-0.178-0.316-0.18c-0.13-0.002-0.251,0.063-0.322,0.17
		l-3.503,5.329c-0.04,0.062-0.061,0.133-0.062,0.202C320.036,386.257,320.096,386.38,320.208,386.454"/>
	<line fill="none" stroke="#FF7373" stroke-width="2" stroke-miterlimit="10" x1="439" y1="442.163" x2="439" y2="380.542"/>
	
		<path fill="#FF7373" stroke="#FF7373" stroke-width="0.75" stroke-linecap="round" stroke-linejoin="round" stroke-miterlimit="10" d="
		M435.367,437.144c0.174-0.115,0.409-0.066,0.524,0.108l3.176,4.833l3.036-4.922c0.11-0.177,0.343-0.233,0.52-0.123
		c0.177,0.11,0.231,0.344,0.123,0.52l-3.348,5.427c-0.068,0.11-0.187,0.178-0.316,0.18c-0.13,0.002-0.251-0.063-0.322-0.17
		l-3.503-5.329c-0.04-0.062-0.061-0.133-0.062-0.202C435.195,437.341,435.256,437.218,435.367,437.144"/>
	
		<line fill="none" stroke="#3D9970" stroke-width="2" stroke-miterlimit="10" x1="554.607" y1="436.399" x2="554.607" y2="443.143"/>
	
		<path fill="#3D9970" stroke="#3D9970" stroke-width="0.75" stroke-linecap="round" stroke-linejoin="round" stroke-miterlimit="10" d="
		M550.974,440.667c0.174,0.115,0.409,0.066,0.524-0.108l3.176-4.833l3.036,4.922c0.11,0.177,0.343,0.233,0.52,0.123
		c0.177-0.11,0.231-0.344,0.123-0.52l-3.348-5.427c-0.068-0.11-0.187-0.178-0.316-0.18c-0.13-0.002-0.251,0.063-0.322,0.17
		l-3.503,5.329c-0.04,0.062-0.061,0.133-0.062,0.202C550.802,440.47,550.863,440.593,550.974,440.667"/>
	<line fill="none" stroke="#3D9970" stroke-width="2" stroke-miterlimit="10" x1="209" y1="146.139" x2="209" y2="151.717"/>
	
		<path fill="#3D9970" stroke="#3D9970" stroke-width="0.75" stroke-linecap="round" stroke-linejoin="round" stroke-miterlimit="10" d="
		M205.367,150.7c0.174,0.115,0.409,0.066,0.524-0.108l3.176-4.833l3.036,4.922c0.11,0.178,0.343,0.233,0.52,0.123
		c0.177-0.11,0.231-0.344,0.123-0.52l-3.348-5.427c-0.068-0.11-0.187-0.178-0.316-0.18c-0.13-0.002-0.251,0.063-0.322,0.17
		l-3.503,5.329c-0.04,0.062-0.061,0.133-0.062,0.202C205.195,150.503,205.256,150.626,205.367,150.7"/>
	<line fill="none" stroke="#3D9970" stroke-width="2" stroke-miterlimit="10" x1="324" y1="143" x2="324" y2="148.002"/>
	
		<path fill="#3D9970" stroke="#3D9970" stroke-width="0.75" stroke-linecap="round" stroke-linejoin="round" stroke-miterlimit="10" d="
		M320.367,147.419c0.174,0.115,0.409,0.066,0.524-0.108l3.176-4.833l3.036,4.922c0.11,0.177,0.343,0.233,0.52,0.123
		c0.177-0.11,0.231-0.344,0.123-0.52l-3.348-5.427c-0.068-0.11-0.187-0.178-0.316-0.18c-0.13-0.002-0.251,0.063-0.322,0.17
		l-3.503,5.329c-0.04,0.062-0.061,0.133-0.062,0.202C320.195,147.222,320.256,147.346,320.367,147.419"/>
	<line fill="none" stroke="#3D9970" stroke-width="2" stroke-miterlimit="10" x1="439" y1="121.507" x2="439" y2="144.059"/>
	
		<path fill="#3D9970" stroke="#3D9970" stroke-width="0.75" stroke-linecap="round" stroke-linejoin="round" stroke-miterlimit="10" d="
		M435.367,126.644c0.174,0.115,0.409,0.066,0.524-0.108l3.176-4.833l3.036,4.922c0.11,0.178,0.343,0.233,0.52,0.123
		c0.177-0.11,0.231-0.344,0.123-0.52l-3.348-5.427c-0.068-0.11-0.187-0.178-0.316-0.18c-0.13-0.002-0.251,0.063-0.322,0.17
		l-3.503,5.329c-0.04,0.062-0.061,0.133-0.062,0.202C435.195,126.447,435.256,126.57,435.367,126.644"/>
	<line fill="none" stroke="#3D9970" stroke-width="2" stroke-miterlimit="10" x1="554.607" y1="103" x2="554.607" y2="122.985"/>
	
		<path fill="#3D9970" stroke="#3D9970" stroke-width="0.75" stroke-linecap="round" stroke-linejoin="round" stroke-miterlimit="10" d="
		M550.974,108.015c0.174,0.115,0.409,0.066,0.524-0.108l3.176-4.833l3.036,4.922c0.11,0.177,0.343,0.233,0.52,0.123
		c0.177-0.11,0.231-0.344,0.123-0.52l-3.347-5.427c-0.068-0.11-0.187-0.178-0.316-0.18c-0.13-0.002-0.251,0.063-0.322,0.17
		l-3.503,5.329c-0.04,0.062-0.061,0.133-0.062,0.202C550.802,107.818,550.862,107.942,550.974,108.015"/>
	<rect x="46.214" y="106.142" fill="#FFFFFF" width="91.145" height="17.571"/>
</g>
<style>
#g-cd9-race-desktop-img rect, #g-cd9-race-desktop-img circle, #g-cd9-race-desktop-img path, #g-cd9-race-desktop-img line, #g-cd9-race-desktop-img polyline { vector-effect: non-scaling-stroke; }
</style>
</svg>

